<?xml version="1.0" standalone="no"?>
<!DOCTYPE svg PUBLIC "-//W3C//DTD SVG 20010904//EN"
 "http://www.w3.org/TR/2001/REC-SVG-20010904/DTD/svg10.dtd">
<svg version="1.0" xmlns="http://www.w3.org/2000/svg"
 width="566.000000pt" height="339.000000pt" viewBox="0 0 566.000000 339.000000"
 preserveAspectRatio="xMidYMid meet">
<metadata>
Created by potrace 1.15, written by Peter Selinger 2001-2017
</metadata>
<g transform="translate(0.000000,339.000000) scale(0.100000,-0.100000)"
fill="#000000" stroke="none">
<path d="M825 3261 c-242 -3 -446 -10 -453 -14 -7 -5 -53 -8 -103 -8 -87 0
-125 -8 -141 -33 -11 -16 -10 -121 2 -256 6 -63 13 -189 15 -280 2 -91 9 -202
14 -246 5 -45 7 -91 4 -102 -2 -11 0 -85 6 -164 7 -78 14 -206 17 -283 3 -77
9 -185 14 -240 4 -55 11 -181 14 -279 4 -98 9 -183 12 -188 3 -4 7 -81 10
-171 3 -89 9 -195 14 -235 6 -40 10 -130 11 -200 1 -181 10 -242 38 -261 13
-9 44 -38 69 -64 26 -27 65 -60 88 -73 l41 -24 1849 -5 c1017 -2 1877 -7 1912
-11 41 -4 67 -2 76 5 10 9 68 9 222 2 115 -5 215 -6 221 -2 7 4 46 4 85 0 114
-12 257 -10 302 3 28 8 60 32 103 75 35 35 67 63 71 63 17 0 40 36 46 70 3 19
8 124 11 233 3 110 7 202 10 206 2 5 7 82 9 172 3 90 11 232 17 314 6 83 9
172 6 199 -2 27 -1 63 4 80 5 17 11 112 13 211 3 99 10 252 17 340 6 88 9 179
6 202 -2 24 -1 64 4 90 5 26 11 128 14 227 2 100 9 266 16 369 11 182 11 190
-8 215 -19 25 -27 27 -119 33 -54 4 -153 11 -219 17 -134 12 -3602 22 -4340
13z m4345 -59 c42 -5 9 -8 -135 -13 -162 -5 -145 -5 118 -5 259 0 310 -2 318
-14 5 -8 7 -37 5 -65 -3 -27 -8 -105 -12 -172 -5 -91 -10 -123 -21 -127 -7 -3
-108 -9 -224 -12 -130 -5 -206 -11 -200 -17 5 -5 69 -5 166 2 215 15 255 14
255 -3 0 -10 -21 -17 -77 -23 -43 -4 -1069 -6 -2280 -5 -1639 3 -2203 1 -2203
-8 0 -8 585 -10 2284 -8 2025 3 2285 1 2288 -12 2 -8 -1 -88 -7 -178 -9 -147
-12 -165 -30 -175 -15 -9 -583 -13 -2315 -17 l-2295 -6 2308 1 c1269 0 2307
-3 2307 -7 0 -5 -10 -9 -22 -9 -13 -1 -90 -5 -173 -9 l-150 -7 175 1 175 1 -3
-175 c-2 -127 -6 -179 -16 -188 -29 -29 -406 -33 -2609 -30 -1211 2 -2166 1
-2122 -2 53 -4 74 -8 63 -14 -23 -11 -479 11 -492 24 -7 7 2 10 24 11 l35 2
-35 6 c-44 8 -47 24 -52 226 l-3 150 45 6 45 6 -42 1 c-24 1 -43 7 -43 12 0
10 303 7 490 -5 48 -2 56 -1 30 5 -19 4 -143 10 -275 14 -131 3 -243 10 -248
15 -11 11 -40 338 -32 359 5 13 37 14 233 10 126 -3 200 -2 167 2 -33 4 -133
8 -222 9 -152 1 -163 2 -163 20 0 17 12 18 238 15 l237 -2 -236 8 c-130 4
-241 10 -246 13 -12 7 -38 339 -29 363 5 14 47 15 408 11 223 -3 363 -1 313 3
-49 4 65 5 255 1 370 -6 2379 -8 2950 -2 190 2 363 0 385 -4 36 -7 38 -6 26 9
-12 15 11 16 300 16 173 0 339 -4 369 -8z m224 -1281 c3 -5 -13 -12 -37 -16
-23 -4 -859 -8 -1857 -9 l-1815 -2 1705 8 c938 4 1759 11 1825 16 66 4 132 9
147 10 15 1 29 -2 32 -7z m-4109 -31 c798 -10 4002 -9 4090 2 l30 3 -3 -175
c-2 -96 -6 -178 -10 -182 -26 -25 -440 -29 -2522 -26 -1191 2 -2155 2 -2142 0
17 -3 21 -8 17 -23 -6 -17 -1 -19 52 -18 47 1 53 3 28 9 -16 4 197 7 475 6
l505 -1 -410 -5 -410 -5 355 -7 c195 -5 936 -7 1645 -6 710 2 1194 4 1078 5
-131 2 -213 7 -213 13 0 6 178 10 493 10 444 1 842 11 986 26 41 4 52 2 49 -8
-6 -16 -93 -26 -333 -37 l-180 -9 225 4 c124 2 243 7 264 11 l39 6 -7 -174
c-3 -95 -10 -177 -15 -182 -26 -26 -320 -30 -2396 -28 -1182 1 -2235 7 -2340
12 -228 11 -335 9 -195 -3 150 -12 4418 -28 4675 -17 121 5 226 12 233 14 6 2
12 -2 12 -10 0 -20 -21 -24 -215 -34 l-170 -10 183 5 c101 3 190 8 198 11 16
6 18 -50 7 -234 -5 -96 -9 -113 -24 -118 -60 -19 -314 -29 -929 -34 l-695 -7
625 -2 c552 -2 906 7 978 23 19 5 23 2 20 -12 -5 -29 -99 -33 -1048 -42 l-885
-8 890 3 c490 2 928 7 974 11 l84 8 -7 -165 c-3 -90 -9 -167 -14 -171 -4 -5
-47 -14 -97 -21 -71 -10 -545 -12 -2280 -10 -2282 3 -2590 9 -2629 48 -14 13
-34 319 -22 331 3 3 54 0 113 -7 81 -10 343 -14 1038 -15 l930 -1 -930 6
c-977 7 -1145 14 -1145 51 0 7 33 9 93 5 67 -4 81 -3 52 4 -22 5 -61 9 -86 9
-78 1 -79 4 -86 194 l-6 167 54 2 54 2 -47 3 c-51 4 -68 28 -25 36 19 4 19 4
-5 6 -16 0 -29 8 -33 19 -8 26 -24 325 -18 336 3 4 69 6 147 3 92 -4 120 -3
81 3 -33 4 -88 8 -122 9 -66 1 -93 8 -93 22 0 6 69 8 173 5 l172 -5 -175 10
c-96 6 -178 13 -182 17 -9 10 -30 340 -22 353 4 7 30 9 68 6 33 -3 475 -11
981 -17z m2535 -410 c0 -7 -172 -10 -495 -10 -323 0 -495 3 -495 10 0 7 172
10 495 10 323 0 495 -3 495 -10z m-2382 -1217 c3 -10 -55 -13 -267 -13 -236 0
-271 2 -271 15 0 13 34 15 267 13 202 -2 267 -6 271 -15z m560 0 c3 -10 -53
-13 -257 -13 -227 0 -261 2 -261 15 0 13 33 15 257 13 194 -2 257 -6 261 -15z
m1170 -10 c3 -10 -56 -13 -271 -13 -236 0 -276 2 -281 15 -5 14 27 15 271 13
210 -2 277 -6 281 -15z m560 0 c3 -10 -54 -13 -262 -13 -231 0 -266 2 -266 15
0 13 33 15 262 13 198 -2 262 -6 266 -15z m570 0 c-2 -13 -12 -18 -36 -17 -17
0 -138 1 -267 2 -201 2 -235 4 -235 17 0 13 37 15 271 15 252 0 270 -1 267
-17z m462 -3 c0 -19 -7 -20 -203 -20 -112 0 -206 3 -210 6 -3 3 -3 12 0 20 4
11 43 14 209 14 197 0 204 -1 204 -20z m-2172 -37 c3 -10 -56 -13 -272 -13
-240 0 -276 2 -276 15 0 13 34 15 272 13 206 -2 272 -6 276 -15z m1665 1 c94
-16 16 -24 -233 -24 -233 0 -270 2 -270 15 0 13 32 15 233 15 127 0 249 -3
270 -6z"/>
<path d="M1012 2313 c207 -2 549 -2 760 0 211 1 41 2 -377 2 -418 0 -590 -1
-383 -2z"/>
<path d="M1623 1053 c427 -2 1127 -2 1555 0 427 1 77 2 -778 2 -855 0 -1205
-1 -777 -2z"/>
<path d="M1203 683 c274 -2 720 -2 990 0 271 1 47 2 -498 2 -545 0 -766 -1
-492 -2z"/>
</g>
</svg>
