<?xml version="1.0" encoding="iso-8859-1"?>
<!-- Generator: Adobe Illustrator 18.0.0, SVG Export Plug-In . SVG Version: 6.00 Build 0)  -->
<!DOCTYPE svg PUBLIC "-//W3C//DTD SVG 1.1//EN" "http://www.w3.org/Graphics/SVG/1.1/DTD/svg11.dtd">
<svg version="1.1" id="Capa_1" xmlns="http://www.w3.org/2000/svg" xmlns:xlink="http://www.w3.org/1999/xlink" x="0px" y="0px"
	 viewBox="0 0 466.961 466.961" style="enable-background:new 0 0 466.961 466.961;" xml:space="preserve">
<g>
	<path d="M431.865,171.006L280.168,19.308c-25.742-25.744-67.631-25.744-93.374,0L35.096,171.006
		c-12.492,12.491-16.052,30.39-9.292,46.711c4.979,12.021,14.523,20.689,26.274,24.422v158.797
		c0,36.406,29.619,66.025,66.025,66.025h230.775c36.406,0,66.025-29.619,66.025-66.025l-0.001-158.801
		c11.737-3.735,21.276-12.4,26.254-24.419C447.917,201.395,444.356,183.497,431.865,171.006z M413.44,206.237
		c-0.771,1.862-3.908,7.94-11.884,7.94c-9.183,0-16.653,7.471-16.653,16.652l0.001,170.106c0,19.864-16.161,36.025-36.025,36.025
		H118.104c-19.864,0-36.025-16.161-36.025-36.025V230.83c0-9.182-7.471-16.652-16.674-16.652c-7.975,0-11.112-6.078-11.884-7.94
		c-0.771-1.863-2.851-8.379,2.788-14.018L208.007,40.521c7.023-7.023,16.249-10.534,25.474-10.534
		c9.225,0,18.451,3.511,25.474,10.534l151.697,151.698C416.291,197.858,414.212,204.374,413.44,206.237z"/>
	<path d="M194.457,258.216c0-10.122,3.854-19.342,10.174-26.277l-43.159-8.188c-11.087-2.104-21.353,6.398-21.353,17.683v33.564
		c0,11.285,10.266,19.786,21.353,17.683l43.159-8.188C198.311,277.559,194.457,268.338,194.457,258.216z"/>
	<path d="M305.488,223.751l-43.159,8.188c6.32,6.935,10.174,16.155,10.174,26.277s-3.854,19.342-10.174,26.277l43.159,8.188
		c11.087,2.104,21.353-6.398,21.353-17.683v-33.564C326.841,230.149,316.576,221.648,305.488,223.751z"/>
	<path d="M207.593,224.101c0.258,1.362,0.681,2.656,1.219,3.882c6.723-5.492,15.31-8.79,24.668-8.79s17.945,3.298,24.668,8.79
		c0.539-1.226,0.961-2.52,1.22-3.882l8.577-45.211c2.103-11.087-6.398-21.353-17.683-21.353h-33.564
		c-11.285,0-19.786,10.266-17.683,21.353L207.593,224.101z"/>
	<path d="M259.368,292.332c-0.258-1.362-0.681-2.656-1.219-3.882c-6.723,5.492-15.31,8.79-24.668,8.79s-17.945-3.298-24.668-8.79
		c-0.539,1.226-0.961,2.52-1.22,3.882l-8.577,45.211c-2.103,11.087,6.398,21.353,17.683,21.353h33.564
		c11.285,0,19.786-10.266,17.683-21.353L259.368,292.332z"/>
	<circle cx="233.48" cy="258.216" r="25.888"/>
</g>
<g>
</g>
<g>
</g>
<g>
</g>
<g>
</g>
<g>
</g>
<g>
</g>
<g>
</g>
<g>
</g>
<g>
</g>
<g>
</g>
<g>
</g>
<g>
</g>
<g>
</g>
<g>
</g>
<g>
</g>
</svg>
