<?xml version="1.0" encoding="iso-8859-1"?>
<!-- Generator: Adobe Illustrator 18.0.0, SVG Export Plug-In . SVG Version: 6.00 Build 0)  -->
<!DOCTYPE svg PUBLIC "-//W3C//DTD SVG 1.1//EN" "http://www.w3.org/Graphics/SVG/1.1/DTD/svg11.dtd">
<svg version="1.1" id="Capa_1" xmlns="http://www.w3.org/2000/svg" xmlns:xlink="http://www.w3.org/1999/xlink" x="0px" y="0px"
	 viewBox="0 0 388.334 388.334" style="enable-background:new 0 0 388.334 388.334;" xml:space="preserve">
<g>
	<path d="M335.019,198.4c0-78.189-63.611-141.801-141.801-141.801S51.417,120.21,51.417,198.4c0,8.284,6.716,15,15,15
		s15-6.716,15-15c0-61.647,50.153-111.801,111.801-111.801S305.019,136.753,305.019,198.4c0,8.284,6.716,15,15,15
		S335.019,206.684,335.019,198.4z"/>
	<path d="M193.218,133.33c-35.879,0-65.069,29.19-65.069,65.069c0,8.284,6.716,15,15,15s15-6.716,15-15
		c0-19.337,15.732-35.069,35.069-35.069s35.069,15.732,35.069,35.069c0,8.284,6.716,15,15,15s15-6.716,15-15
		C258.287,162.52,229.097,133.33,193.218,133.33z"/>
	<polygon points="51.915,295.193 35.912,238.616 0,238.616 0,329.341 26.714,329.341 26.714,298.595 26.083,284.483 24.823,271.126 
		25.075,271.126 41.582,329.341 62.247,329.341 78.754,271.126 79.006,271.126 77.494,287.507 77.116,301.619 77.116,329.341 
		103.83,329.341 103.83,238.616 67.918,238.616 	"/>
	<path d="M160.021,236.222c-28.226,0-47.505,18.523-47.505,47c0,30.872,19.027,48.513,47.505,48.513
		c26.84,0,47.631-17.389,47.631-48.261C207.651,259.533,192.404,236.222,160.021,236.222z M160.021,309.558
		c-14.239,0-17.767-14.491-17.767-26.083c0-11.466,4.032-25.075,17.515-25.075c13.104-0.378,18.145,12.727,18.145,25.075
		C177.913,298.469,172.873,309.558,160.021,309.558z"/>
	<path d="M256.788,238.616H216.97v90.725h39.063c29.107,0,48.135-13.105,48.135-47.252
		C304.167,252.225,286.021,238.616,256.788,238.616z M253.008,308.172h-6.301v-48.387h5.671c15.877,0,22.051,5.041,22.051,23.941
		C274.429,300.864,266.868,308.172,253.008,308.172z"/>
	<polygon points="342.342,308.172 342.342,293.933 379.766,293.933 379.766,272.764 342.342,272.764 342.342,259.785 
		386.57,259.785 386.57,238.616 312.604,238.616 312.604,329.341 388.334,329.341 388.334,308.172 	"/>
</g>
<g>
</g>
<g>
</g>
<g>
</g>
<g>
</g>
<g>
</g>
<g>
</g>
<g>
</g>
<g>
</g>
<g>
</g>
<g>
</g>
<g>
</g>
<g>
</g>
<g>
</g>
<g>
</g>
<g>
</g>
</svg>
