<?xml version="1.0" encoding="iso-8859-1"?>
<!-- Generator: Adobe Illustrator 18.0.0, SVG Export Plug-In . SVG Version: 6.00 Build 0)  -->
<!DOCTYPE svg PUBLIC "-//W3C//DTD SVG 1.1//EN" "http://www.w3.org/Graphics/SVG/1.1/DTD/svg11.dtd">
<svg version="1.1" id="Capa_1" xmlns="http://www.w3.org/2000/svg" xmlns:xlink="http://www.w3.org/1999/xlink" x="0px" y="0px"
	 viewBox="0 0 415.453 415.453" style="enable-background:new 0 0 415.453 415.453;" xml:space="preserve">
<g>
	<path d="M361.463,264.563c-8.284,0-15,6.716-15,15v120.89c0,8.284,6.716,15,15,15s15-6.716,15-15v-120.89
		C376.463,271.279,369.747,264.563,361.463,264.563z"/>
	<path d="M189.881,15c0-8.284-6.716-15-15-15H53.99c-8.284,0-15,6.716-15,15s6.716,15,15,15h120.891
		C183.165,30,189.881,23.284,189.881,15z"/>
	<path d="M302.734,306.571c-4.405-4.405-11.936-1.285-11.936,4.944v14.749v0.011c-89.9-5.487-161.362-80.354-161.362-171.61V92.269
		v-9.204h15.096c6.229,0,9.349-7.531,4.944-11.936L119.38,41.033c-2.731-2.73-7.158-2.73-9.888,0L79.395,71.129
		c-4.405,4.405-1.285,11.936,4.944,11.936h15.096v71.6c0,107.804,84.91,196.146,191.362,201.669v15.373
		c0,6.229,7.531,9.349,11.936,4.944l30.096-30.096c2.731-2.73,2.731-7.157,0-9.888L302.734,306.571z"/>
</g>
<g>
</g>
<g>
</g>
<g>
</g>
<g>
</g>
<g>
</g>
<g>
</g>
<g>
</g>
<g>
</g>
<g>
</g>
<g>
</g>
<g>
</g>
<g>
</g>
<g>
</g>
<g>
</g>
<g>
</g>
</svg>
