<?xml version="1.0" standalone="no"?>
<!DOCTYPE svg PUBLIC "-//W3C//DTD SVG 20010904//EN"
 "http://www.w3.org/TR/2001/REC-SVG-20010904/DTD/svg10.dtd">
<svg version="1.0" xmlns="http://www.w3.org/2000/svg"
 width="474.000000pt" height="168.000000pt" viewBox="0 0 474.000000 168.000000"
 preserveAspectRatio="xMidYMid meet">
<metadata>
Created by potrace 1.15, written by Peter Selinger 2001-2017
</metadata>
<g transform="translate(0.000000,168.000000) scale(0.100000,-0.100000)"
fill="#000000" stroke="none">
<path d="M800 1561 c-344 -4 -633 -11 -643 -15 -10 -5 -22 -17 -27 -27 -6 -11
-10 -265 -10 -679 1 -644 1 -661 20 -680 20 -20 45 -20 2230 -20 2185 0 2210
0 2230 20 19 19 19 36 20 685 0 636 -1 666 -18 683 -16 16 -41 20 -153 25
-200 10 -2929 15 -3649 8z m3753 -37 c16 -6 17 -49 17 -535 l0 -529 -2195 0
-2195 0 -2 530 c-2 292 -3 531 -3 532 0 15 4340 17 4378 2z m17 -1213 l0 -128
-37 -7 c-50 -8 -4247 -8 -4307 0 l-46 7 0 128 0 129 2195 0 2195 0 0 -129z"/>
</g>
</svg>
